<?xml version="1.0" encoding="UTF-8" standalone="no"?>
<!-- Created with Inkscape (http://www.inkscape.org/) -->

<svg
   width="120"
   height="120"
   viewBox="0 0 120 120"
   version="1.1"
   id="svg5"
   sodipodi:docname="figure.svg"
   inkscape:version="1.2.1 (9c6d41e410, 2022-07-14)"
   xmlns:inkscape="http://www.inkscape.org/namespaces/inkscape"
   xmlns:sodipodi="http://sodipodi.sourceforge.net/DTD/sodipodi-0.dtd"
   xmlns="http://www.w3.org/2000/svg"
   xmlns:svg="http://www.w3.org/2000/svg">
  <sodipodi:namedview
     id="namedview10"
     pagecolor="#505050"
     bordercolor="#eeeeee"
     borderopacity="1"
     inkscape:pageshadow="0"
     inkscape:pageopacity="0"
     inkscape:pagecheckerboard="0"
     showgrid="false"
     inkscape:zoom="5.3666667"
     inkscape:cx="114.87578"
     inkscape:cy="48.540372"
     inkscape:window-width="1920"
     inkscape:window-height="1001"
     inkscape:window-x="-9"
     inkscape:window-y="-9"
     inkscape:window-maximized="1"
     inkscape:current-layer="svg5"
     inkscape:showpageshadow="0"
     inkscape:deskcolor="#505050" />
  <defs
     id="defs2" />
  <g
     id="layer1">
    <g
       id="g4944"
       transform="matrix(1.1559261,0,0,1.1559261,-14.019597,-16.608761)"
       style="stroke-width:0.865107">
      <ellipse
         style="opacity:0.6;fill:#26ff63;fill-opacity:1;stroke-width:17.9077;stroke-linecap:square"
         id="path850"
         cx="51.149067"
         cy="81.708076"
         rx="37.919254"
         ry="18.540373" />
      <ellipse
         style="opacity:0.6;fill:#14fffe;fill-opacity:1;stroke-width:17.9077;stroke-linecap:square"
         id="path1600"
         cx="48.026165"
         cy="56.524624"
         rx="35.3773"
         ry="27.142359" />
      <ellipse
         style="opacity:0.6;fill:#a63bd5;fill-opacity:1;stroke-width:17.9077;stroke-linecap:square"
         id="path1598"
         cx="84.721054"
         cy="76.420235"
         rx="30.699854"
         ry="26.747082" />
      <ellipse
         style="opacity:0.6;fill:#0071f9;fill-opacity:1;stroke-width:17.9077;stroke-linecap:square"
         id="path1170"
         cx="63.167702"
         cy="62.04969"
         rx="29.627329"
         ry="26.273293" />
    </g>
  </g>
  <text
     xml:space="preserve"
     style="font-style:normal;font-variant:normal;font-weight:normal;font-stretch:normal;font-size:80px;line-height:1.25;font-family:Iconic_Lettering;-inkscape-font-specification:'Iconic_Lettering, Normal';font-variant-ligatures:normal;font-variant-caps:normal;font-variant-numeric:normal;font-variant-east-asian:normal;fill:#000000;fill-opacity:1;stroke:none"
     x="29.254658"
     y="9.6894407"
     id="text2699"><tspan
       sodipodi:role="line"
       id="tspan2697"
       x="29.254658"
       y="9.6894407" /></text>
  <g
     aria-label="Figure"
     id="text15271"
     style="font-size:40px;line-height:1.25;font-family:Iconic_Lettering;-inkscape-font-specification:'Iconic_Lettering, Normal'">
    <path
       d="m 35.680131,50.620003 c -0.24,0 -0.44,0.12 -0.6,0.24 -0.16,0.16 -0.24,0.36 -0.24,0.6 v 9.52 3.84 c 0,0.44 0.36,0.8 0.84,0.8 0.44,0 0.84,-0.36 0.84,-0.8 v -3 h 4.52 c 0.48,0 0.84,-0.36 0.84,-0.84 0,-0.44 -0.36,-0.84 -0.84,-0.84 h -4.52 v -7.84 h 6.56 c 0.48,0 0.84,-0.36 0.84,-0.84 0,-0.44 -0.36,-0.84 -0.84,-0.84 z"
       id="path296" />
    <path
       d="m 46.840154,50.620003 c -1.2,0 -2.24,1.04 -2.24,2.28 0,1.24 1.04,2.24 2.24,2.24 1.24,0 2.28,-1 2.28,-2.24 0,-1.24 -1.04,-2.28 -2.28,-2.28 z m 0,1.68 c 0.36,0 0.6,0.24 0.6,0.6 0,0.32 -0.24,0.56 -0.6,0.56 -0.32,0 -0.56,-0.24 -0.56,-0.56 0,-0.36 0.24,-0.6 0.56,-0.6 z m 0,4.2 c -0.44,0 -0.8,0.36 -0.8,0.84 v 7.48 c 0,0.44 0.36,0.8 0.8,0.8 0.48,0 0.84,-0.36 0.84,-0.8 v -7.48 c 0,-0.48 -0.36,-0.84 -0.84,-0.84 z"
       id="path298" />
    <path
       d="m 54.480153,56.500003 c -2.48,0 -4.56,2.04 -4.56,4.56 0,2.52 2.08,4.56 4.56,4.56 1.12,0 2.12,-0.4 2.92,-1.04 v 0.24 c 0,1.6 -1.28,2.88 -2.92,2.88 -0.44,0 -0.8,0.4 -0.8,0.84 0,0.48 0.36,0.84 0.8,0.84 2.52,0 4.6,-2.04 4.6,-4.56 v -3.76 c 0,-2.52 -2.08,-4.56 -4.6,-4.56 z m 0,1.64 c 1.64,0 2.92,1.32 2.92,2.92 0,1.64 -1.28,2.92 -2.92,2.92 -1.6,0 -2.88,-1.28 -2.88,-2.92 0,-1.6 1.28,-2.92 2.88,-2.92 z"
       id="path300" />
    <path
       d="m 60.760153,56.500003 c -0.48,0 -0.84,0.36 -0.84,0.84 v 3.72 c 0,2.52 2.08,4.56 4.56,4.56 2.52,0 4.6,-2.04 4.6,-4.56 v -3.72 c 0,-0.48 -0.36,-0.84 -0.84,-0.84 -0.44,0 -0.84,0.36 -0.84,0.84 v 3.72 c 0,1.64 -1.28,2.92 -2.92,2.92 -1.6,0 -2.88,-1.28 -2.88,-2.92 v -3.72 c 0,-0.48 -0.4,-0.84 -0.84,-0.84 z"
       id="path302" />
    <path
       d="m 74.400153,56.500003 c -2.52,0 -4.56,2.04 -4.56,4.56 v 3.76 c 0,0.44 0.36,0.8 0.84,0.8 0.44,0 0.84,-0.36 0.84,-0.8 v -3.76 c 0,-1.6 1.28,-2.92 2.88,-2.92 0.48,0 0.84,-0.36 0.84,-0.8 0,-0.48 -0.36,-0.84 -0.84,-0.84 z"
       id="path304" />
    <path
       d="m 80.56017,56.500003 c -2.48,0 -4.56,2.04 -4.56,4.56 0,2.52 2.08,4.56 4.56,4.56 0.48,0 0.84,-0.36 0.84,-0.8 0,-0.48 -0.36,-0.84 -0.84,-0.84 -1.32,0 -2.36,-0.88 -2.72,-2.08 h 6.48 c 0.48,0 0.84,-0.36 0.84,-0.84 0,-2.52 -2.08,-4.56 -4.6,-4.56 z m 0,1.64 c 1.32,0 2.4,0.88 2.76,2.08 h -5.48 c 0.36,-1.2 1.4,-2.08 2.72,-2.08 z"
       id="path306" />
  </g>
</svg>
